Coordinates
version=1
nRows=11
nColumns=36
inDegrees=yes

Units are S.I. units (second, meters, Newtons, ...)
If the header above contains a line with 'inDegrees', this indicates whether rotational values are in degrees (yes) or radians (no).

endheader
time	pelvis_tilt	pelvis_list	pelvis_rotation	pelvis_tx	pelvis_ty	pelvis_tz	hip_flexion_r	hip_adduction_r	hip_rotation_r	knee_angle_r	knee_angle_r_beta	ankle_angle_r	subtalar_angle_r	mtp_angle_r	hip_flexion_l	hip_adduction_l	hip_rotation_l	knee_angle_l	knee_angle_l_beta	ankle_angle_l	subtalar_angle_l	mtp_angle_l	lumbar_extension	lumbar_bending	lumbar_rotation	arm_flex_r	arm_add_r	arm_rot_r	elbow_flex_r	pro_sup_r	arm_flex_l	arm_add_l	arm_rot_l	elbow_flex_l	pro_sup_l
      0.00000000	     -3.18861617	     -1.58971843	     12.53550410	     -0.05502218	      0.92571323	     -0.19669982	     27.29286566	      0.44565411	     -5.91043257	      4.48999268	      0.07836516	     -9.73550757	    -10.03160318	     -5.58650654	    -13.77655743	     -1.26796300	     -0.27714597	     10.02336676	      0.17494075	     17.85488591	      2.69086323	     -5.58650654	     -0.54053794	     -1.63520564	    -16.31054518	    -10.97357780	     -2.69086730	    -17.62921866	     19.05113716	     99.48224829	     21.60374775	    -10.58284704	     -4.53053185	     55.24950359	    104.26824296
      0.01000000	     -2.73489840	     -2.20427216	     12.74878787	     -0.04200213	      0.92659664	     -0.19615621	     26.68142231	      1.20280185	     -6.61500745	      5.43815075	      0.09491364	    -10.42680113	    -11.07515612	     -5.61080704	    -13.95514265	     -2.32762410	     -0.28759822	     11.77396771	      0.20549450	     16.94902752	      1.93485506	     -5.61080704	     -0.93652947	     -0.75962102	    -16.24254357	    -11.00189788	     -2.89237334	    -17.57226977	     18.68238389	     99.59560699	     21.28153546	    -10.10016979	     -4.45311177	     55.33063650	    104.39492038
      0.02000000	     -2.38307404	     -2.80806581	     12.83215062	     -0.02892969	      0.92737299	     -0.19544100	     26.17532120	      2.01006300	     -6.63552834	      6.42633729	      0.11216074	    -10.84615015	    -11.56676481	     -5.62014138	    -14.15318281	     -3.28230471	      0.15962740	     13.30166505	      0.23215785	     16.10921626	      1.62791715	     -5.62014138	     -1.20246708	      0.12748664	    -16.09695570	    -11.00125347	     -3.09093804	    -17.58520566	     18.43807366	     99.62807160	     20.82965675	     -9.65105452	     -4.34724456	     55.35721095	    104.44271713
      0.03000000	     -2.16898998	     -3.39625809	     13.08973549	     -0.01600545	      0.92814230	     -0.19475318	     25.71234719	      2.79412555	     -6.69232181	      7.10738508	      0.12404727	    -12.86791283	    -14.77321578	     -5.72779807	    -13.80050919	     -4.19421883	      0.67634682	     15.44589326	      0.26958169	     14.28284604	     -0.78044922	     -5.72779807	     -1.25776987	      0.85437516	    -16.28678276	    -10.84980720	     -3.27922854	    -17.18665633	     17.77947800	    100.12279453	     20.17617950	     -9.24670626	     -4.56923737	     55.48293323	    104.77853561
      0.04000000	     -1.82186450	     -3.98760785	     13.25248362	     -0.00300555	      0.92922009	     -0.19391766	     25.20815467	      3.60794950	     -7.06391009	      8.09657439	      0.14131188	    -12.88070435	    -15.40594614	     -5.76188572	    -13.46121460	     -5.19140103	      0.75150852	     17.79099155	      0.31051138	     12.79563701	     -1.69363658	     -5.76188572	     -1.48735388	      1.66642446	    -16.14538784	    -10.80658762	     -3.41862706	    -17.14060275	     17.48542450	    100.21746248	     19.68797090	     -8.82616835	     -4.32683238	     55.32002834	    104.87004923
      0.05000000	     -1.56984840	     -4.45838986	     13.39829416	      0.00976667	      0.93040784	     -0.19294680	     24.77536304	      4.33195897	     -7.11747934	      9.09471602	      0.15873274	    -12.75056146	    -16.38709510	     -5.86051885	    -12.83190548	     -5.95558955	      1.34015494	     20.41831890	      0.35636689	     10.66794338	     -3.44197905	     -5.86051885	     -1.66811440	      2.29258779	    -15.91897834	    -10.71256163	     -3.49636831	    -16.93803293	     17.14793461	    100.45822843	     19.21758488	     -8.45394384	     -3.97445425	     55.01577172	    105.09647309
      0.06000000	     -1.22955357	     -4.99004639	     13.50403392	      0.02252190	      0.93182046	     -0.19177065	     24.21370799	      5.18213814	     -7.24483489	     10.02269278	      0.17492899	    -12.17405394	    -16.95069570	     -5.88671638	    -11.99720720	     -6.92745738	      1.27034576	     23.47256032	      0.40967346	      8.67246369	     -4.21260401	     -5.88671638	     -1.94769822	      3.00772052	    -15.64552752	    -10.56658082	     -3.53874069	    -16.92290824	     16.96834717	    100.49205934	     18.68374331	     -8.10279321	     -3.62905347	     54.71224046	    105.16132266
      0.07000000	     -0.72263501	     -5.35755458	     13.56004688	      0.03494594	      0.93361424	     -0.19052671	     23.38106083	      5.95897215	     -7.09880423	     10.85009865	      0.18936995	    -11.55353555	    -17.37933055	     -5.89741075	    -11.23059024	     -7.68925832	      1.59271077	     26.71683730	      0.46629678	      6.72121939	     -4.61659473	     -5.89741075	     -2.55103443	      3.56714112	    -15.19870242	    -10.29447614	     -3.54977351	    -16.89821716	     16.88415723	    100.50673389	     18.27769036	     -7.73326984	     -3.34137970	     54.48527817	    105.19933234
      0.08000000	     -0.82702287	     -5.81533392	     13.59440502	      0.04731415	      0.93462930	     -0.18923922	     23.23681389	      6.64147200	     -7.38614810	     11.69578084	      0.20412988	    -10.40729940	    -17.71200270	     -5.97228227	     -9.43180891	     -8.41897236	      1.71718102	     30.36112853	      0.52990166	      3.09337786	     -6.96754081	     -5.97228227	     -2.25028347	      4.04369999	    -14.71268262	    -10.25769090	     -3.56018275	    -16.84339135	     16.75080359	    100.59213204	     17.78055777	     -7.51346716	     -2.21222997	     53.46258733	    105.49434287
      0.09000000	     -0.54770503	     -6.29619182	     13.57932016	      0.05950854	      0.93613017	     -0.18781209	     22.49753189	      7.52269155	     -7.45193439	     12.13559547	      0.21180610	     -9.51075775	    -17.98294448	     -5.99832380	     -7.93931293	     -9.36724694	      1.56949855	     34.10467126	      0.59523880	      0.33988390	     -7.52480915	     -5.99832380	     -2.52502713	      4.65517936	    -14.21592915	     -9.96559363	     -3.57704086	    -16.83806340	     16.79094106	    100.62247396	     17.21656637	     -7.22246661	     -1.69148248	     52.94699442	    105.61490934
      0.10000000	     -0.32734627	     -6.72115935	     13.53435452	      0.07145798	      0.93750682	     -0.18641825	     21.73123526	      8.33168102	     -7.55820372	     12.39134042	      0.21626969	     -8.58510274	    -18.15300979	     -6.01984623	     -6.28053468	    -10.19298794	      1.60845402	     37.89500033	      0.66139253	     -2.49595088	     -8.21763329	     -6.01984623	     -2.74201755	      5.18283701	    -13.62152534	     -9.66086405	     -3.59765212	    -16.83802597	     16.91316229	    100.65809040	     16.69702920	     -6.93299434	     -1.05656460	     52.31083119	    105.74248469
